<svg xmlns="http://www.w3.org/2000/svg" xmlns:xlink="http://www.w3.org/1999/xlink" width="300" height="300" viewBox="594045.7764251226 5188209.844806053 21246.81377376744 18814.928771163337" preserveAspectRatio="xMinYMin meet"><g transform="matrix(1,0,0,-1,0,10395234.61838327)"><path fill-rule="evenodd" fill="#66cc99" stroke="#555555" stroke-width="141.6454251584496" opacity="0.6" d="M 614505.671170232,5196141.459280169 L 614495.0879041239,5196093.83332418 L 614484.5046623171,5196058.114188848 L 614477.8902260358,5196023.717739309 L 614471.2756237531,5195989.32129831 L 614464.6610592715,5195962.862613411 L 614455.4007347121,5195944.34163413 L 614443.494590729,5195929.789441386 L 614428.942609733,5195920.529026469 L 614413.0679775856,5195908.622860218 L 614390.5784293925,5195899.362573943 L 614365.4432959107,5195887.456535025 L 614338.9853342797,5195878.196154379 L 614315.1729018404,5195863.644434655 L 614299.2980798476,5195854.383835594 L 614286.0692075212,5195841.1546765845 L 614268.8713783401,5195823.956845953 L 614255.642248853,5195806.758598394 L 614245.0590431406,5195775.008195526 L 614246.3818862012,5195759.132996562 L 614249.3411521536,5195745.322916411 L 614250.3506167468,5195740.611688686 L 614251.2366040236,5195726.433825235 L 614251.6735653399,5195719.444594909 L 614252.8620615769,5195688.538303527 L 614252.9964188837,5195685.047986696 L 614252.6874599343,5195682.421493354 L 614250.3506310284,5195662.558046204 L 614249.0276219907,5195636.099216964 L 614249.0276995333,5195625.445251126 L 614249.0276811416,5195618.90101503 L 614245.0589087139,5195603.025916672 L 614232.405207901,5195580.018387217 L 614230.5068997383,5195576.566873835 L 614214.6318539378,5195565.982920769 L 614190.819348644,5195538.200769098 L 614168.3297999375,5195514.387472182 L 614149.808982226,5195501.157756672 L 614133.9339619051,5195485.282253938 L 614118.0589696008,5195468.083592456 L 614107.4755163853,5195452.20812277 L 614098.2151633454,5195436.332604079 L 614096.892226469,5195428.394953233 L 614088.9546454037,5195397.96713286 L 614077.0745024871,5195376.582367882 L 614074.5679904376,5195365.720135263 L 614070.994969444,5195357.859114037 L 614064.6460453615,5195343.891454965 L 614042.8178991673,5195301.22614082 L 614040.0352820979,5195289.538931442 L 614040.0218348438,5195289.4825133635 L 614037.8568430718,5195280.389824255 L 614026.9430115812,5195258.560916776 L 614013.0521913626,5195248.638552174 L 613991.2241472193,5195235.73981163 L 613976.3413925375,5195220.856298553 L 613957.4898024385,5195203.988512628 L 613936.6538742706,5195189.104952723 L 613919.8309981171,5195173.166832604 L 613906.3893743777,5195157.48445515 L 613891.0155004944,5195150.758209264 L 613869.876498966,5195141.14883984 L 613857.3853470482,5195137.305061259 L 613845.8550344637,5195134.422212139 L 613820.8724251769,5195136.34365335 L 613805.4988086491,5195138.265057371 L 613776.6728949646,5195141.147478734 L 613755.1305555952,5195150.181061837 L 613748.807755893,5195150.755712775 L 613737.277404934,5195150.755583552 L 613713.2558907534,5195143.068037509 L 613700.7646177183,5195132.498114289 L 613690.19519205,5195124.81096622 L 613687.7112361214,5195121.180473606 L 613683.6460929981,5195109.724140709 L 613666.7790073247,5195074.996761349 L 613655.8649719564,5195054.1602803385 L 613641.9743361381,5195039.27685687 L 613620.1461665045,5195024.393403888 L 613608.2398638625,5195004.549036492 L 613602.2868502291,5194979.743678676 L 613601.294553928,5194962.8762657065 L 613592.3650106785,5194941.047561234 L 613578.474296555,5194915.249965369 L 613552.6773067637,5194877.545630354 L 613544.3007700748,5194868.407171963 L 613543.182748657,5194866.330882277 L 613532.613270757,5194849.995832434 L 613523.9656578907,5194839.4258786375 L 613513.396039364,5194830.777736301 L 613507.6308630737,5194826.934182994 L 613499.9439429302,5194824.05133739 L 613491.2962354985,5194823.090397423 L 613483.6092507779,5194823.090307534 L 613480.7267537623,5194819.246568816 L 613481.4850291377,5194813.179387575 L 613482.2321603707,5194812.058905109 L 613492.1540277428,5194807.097937843 L 613503.0680928933,5194801.144834858 L 613511.9976523292,5194790.230733911 L 613516.9585984105,5194780.308714347 L 613526.8805031257,5194763.441564278 L 613531.841378285,5194739.628576535 L 613531.7280569834,5194735.774938411 L 613534.9419479575,5194721.192629794 L 613520.6917043754,5194667.69141567 L 613475.8791240405,5194613.189377831 L 613445.9415880237,5194582.18825895 L 613437.511193728,5194576.931120295 L 613434.8028294002,5194573.728290254 L 613412.7789252382,5194559.045081465 L 613394.9195914465,5194542.177237044 L 613381.0289926371,5194527.293811858 L 613365.1540322921,5194509.433856742 L 613343.325765124,5194473.714114825 L 613334.3961408837,5194455.85419311 L 613325.4664579165,5194438.98665424 L 613315.5445241736,5194427.079974218 L 613303.6383872253,5194421.126578203 L 613294.7087033328,5194415.1731679775 L 613279.8258890089,5194399.297685377 L 613268.9118246612,5194379.453246426 L 613257.9978970529,5194357.624561968 L 613249.068058694,5194332.819139577 L 613237.1618325053,5194302.060759012 L 613232.2008960084,5194281.224135866 L 613218.310222056,5194266.34101818 L 613206.4039741377,5194248.481050639 L 613205.4118419933,5194227.644541356 L 613207.3961888268,5194206.808410457 L 613209.959390763,5194197.837346717 L 613212.357142152,5194175.057901374 L 613226.2476846887,5194145.291778717 L 613246.0913596143,5194105.603848866 L 613248.9564219011,5194100.590274022 L 613254.2006916438,5194091.412421942 L 613265.9351124888,5194070.877002618 L 613281.3804504686,5194048.017687339 L 613290.7398028632,5194034.165788974 L 613299.669492666,5194016.306177844 L 613306.6147105753,5193992.49328722 L 613313.0358230137,5193976.440103575 L 613314.5521288489,5193972.649242672 L 613329.434901828,5193954.789834434 L 613347.2942335443,5193933.953917246 L 613364.0778811772,5193909.710498271 L 613365.1535442614,5193908.156675333 L 613365.1854278678,5193908.107951632 L 613375.1680926756,5193892.871277844 L 613384.0051566663,5193879.383037073 L 613393.9269361282,5193846.640430311 L 613394.0882949848,5193844.382007688 L 613396.9034100478,5193804.967601578 L 613389.9581500416,5193777.18575544 L 613385.9893673896,5193754.365056172 L 613374.0831527425,5193726.583089794 L 613359.2004030023,5193714.676378443 L 613346.3019186403,5193673.995836498 L 613340.3488684503,5193638.276015751 L 613326.4580826615,5193603.548621224 L 613319.5128849376,5193561.876075823 L 613309.2437130774,5193524.221468988 L 613302.6458072746,5193506.312120008 L 613299.8339534691,5193497.073436082 L 613295.7003983476,5193483.491330223 L 613287.7628164522,5193466.623532304 L 613274.8644790428,5193442.810530694 L 613259.9816649868,5193421.973972422 L 613254.0161066507,5193415.34529943 L 613242.1224305456,5193402.129442784 L 613226.2473089055,5193380.300676908 L 613220.4897892609,5193373.007729596 L 613211.3646179308,5193361.448640374 L 613193.5052589244,5193348.549667711 L 613188.3983443597,5193344.536939665 L 613179.614572933,5193337.635171792 L 613166.716144389,5193328.704899383 L 613152.8255565674,5193320.767218978 L 613117.1069049533,5193317.790152339 L 613104.2085485428,5193309.852270495 L 613087.3412339706,5193298.937572971 L 613067.4974898634,5193281.077590989 L 613044.6773821063,5193263.217634748 L 613013.9194906406,5193251.310698977 L 612994.0759001736,5193241.388384217 L 612980.1853548833,5193228.489537141 L 612964.3103394528,5193206.660488722 L 612954.3883657351,5193177.886448831 L 612940.497738747,5193148.120075552 L 612937.5212090706,5193123.315056104 L 612933.5525360915,5193102.47857032 L 612929.5836563178,5193089.579831455 L 612919.9846370197,5193081.046682259 L 612917.6602956052,5193075.236045447 L 612909.9732451828,5193066.58770698 L 612898.4430268079,5193062.744269302 L 612882.108375571,5193065.626577646 L 612863.8518790063,5193067.547885309 L 612853.2824539979,5193066.586873776 L 612842.7129432451,5193060.82154837 L 612837.2361403063,5193056.518109834 L 612830.9675276718,5193046.488139151 L 612819.4510810289,5193018.139212968 L 612816.6259068673,5193010.193169352 L 612803.5761941692,5192973.489562024 L 612795.6387245147,5192941.739055346 L 612774.8027547637,5192901.058159334 L 612763.8887054607,5192879.229450009 L 612764.8809805532,5192852.440056346 L 612767.8573150293,5192810.767369468 L 612774.8026863477,5192753.219441822 L 612777.0171458491,5192742.700520865 L 612782.7402143257,5192715.515708715 L 612778.7713983037,5192677.811889666 L 612769.8417457571,5192655.98336183 L 612759.9199485256,5192619.271438108 L 612758.9277117719,5192594.466266355 L 612753.9666402828,5192565.692143196 L 612742.0605158125,5192550.80892078 L 612728.1700267926,5192531.9568270175 L 612715.2715762274,5192511.120233533 L 612713.7617164813,5192508.80503988 L 612700.3886959752,5192488.299273439 L 612693.4434587639,5192465.478553271 L 612685.5060471134,5192428.766817118 L 612684.5150824978,5192424.431305232 L 612677.5684626882,5192394.039351629 L 612652.7637054477,5192345.421044671 L 612652.2411840216,5192345.01448219 L 612639.9689207368,5192299.986382964 L 612638.8732007709,5192297.794928696 L 612628.9513550214,5192272.989762348 L 612624.9826220145,5192253.145587659 L 612622.744208639,5192244.639282275 L 612620.0217498982,5192234.293491359 L 612610.0998286607,5192211.472620516 L 612599.1858157793,5192192.620579121 L 612591.248330033,5192174.760720171 L 612578.3500515376,5192161.861970732 L 612571.0210160101,5192160.427710898 L 612495.9882594757,5192145.746307409 L 612445.5880432717,5192139.515960223 L 612419.5383644509,5192143.47992115 L 612393.4889669358,5192149.142471467 L 612333.4617239913,5192181.421120195 L 612293.2550034552,5192195.578191027 L 612248.5176417954,5192214.265407049 L 612196.3416021065,5192250.514756122 L 612167.9879494493,5192259.374924511 L 612116.5975322768,5192255.830098688 L 612065.2070332824,5192227.475079859 L 612029.7652469303,5192195.576385083 L 612010.2720950536,5192151.272926665 L 611973.058256556,5192076.84311703 L 611936.8047157046,5192013.3974947715 L 611930.5281380439,5192002.413253852 L 611922.4018133332,5191995.447518056 L 611880.9098121565,5191959.881514592 L 611848.4446927208,5191922.77724418 L 611843.6958814271,5191917.350045913 L 611794.0774492017,5191890.767605078 L 611788.7611731407,5191862.413305573 L 611797.6216064632,5191825.198917951 L 611802.9378671017,5191793.3005759 L 611795.8496979484,5191764.946713428 L 611733.8265293863,5191713.5540935015 L 611645.2221622287,5191663.9334348785 L 611553.0736795029,5191605.451973877 L 611535.2123420349,5191588.115413125 L 611499.0745448574,5191553.039518355 L 611492.8224985831,5191546.971111709 L 611490.7392485251,5191546.003590851 L 611443.2040990462,5191523.932744243 L 611370.548700151,5191495.577561852 L 611315.6138026825,5191468.995110939 L 611269.5396386506,5191435.32388661 L 611237.6419909329,5191396.336973485 L 611195.1120147541,5191367.982385923 L 611172.0747845023,5191339.6280434895 L 611170.545307392,5191333.816072191 L 611163.2144230332,5191305.957443667 L 611138.4052047568,5191275.8310842095 L 611110.0517539959,5191249.248934528 L 611071.0658803469,5191242.159779527 L 611033.8519890672,5191243.931401616 L 610998.4102409377,5191261.652157971 L 610978.4333594051,5191293.282558323 L 610977.1451105216,5191295.322192574 L 610947.0197251365,5191313.043045444 L 610918.6663814366,5191318.358890568 L 610876.1362271814,5191320.130563687 L 610851.3269054668,5191334.307055816 L 610837.1503329314,5191357.344647201 L 610819.4292148763,5191401.647488905 L 610805.2525751933,5191431.773417091 L 610773.3548592023,5191481.3924061805 L 610748.5457515799,5191532.783549823 L 610732.596801128,5191557.593043326 L 610723.7363392004,5191580.630701907 L 610718.4200363744,5191601.89603653 L 610695.3829736464,5191614.30050486 L 610659.941169562,5191617.8441850655 L 610608.5505915831,5191617.843312656 L 610558.9319706479,5191628.475684491 L 610512.8577994572,5191649.740322558 L 610463.2392707212,5191674.549525556 L 610422.4813556973,5191704.675010761 L 610388.8114832626,5191748.977442541 L 610351.597564386,5191798.596429739 L 610316.1556841867,5191842.898941588 L 610291.3466387101,5191864.164150992 L 610250.5884597255,5191881.884811884 L 610229.3234823365,5191896.061505608 L 610210.0155450344,5191925.023568092 L 610208.0583685433,5191927.959297327 L 610199.1977773078,5191965.173795755 L 610193.7934522077,5191987.872456948 L 610190.3374449331,5192002.388194362 L 610170.8443450992,5192018.33695155 L 610149.5792493012,5192004.159754229 L 610138.946829173,5191977.577785005 L 610112.3655969751,5191901.376061503 L 610103.2158577166,5191878.916958565 L 610089.3284958252,5191849.984298562 L 610041.4822013408,5191786.187313312 L 610011.8042205966,5191750.572414475 L 609997.1800423563,5191733.022854436 L 609952.8778707705,5191706.440304938 L 609910.3477417739,5191688.718466643 L 609846.5525925966,5191678.084899353 L 609788.0735983977,5191678.083987044 L 609736.6830338945,5191692.2603111835 L 609676.4322210117,5191717.069212319 L 609588.322576885,5191728.563199154 L 609550.613721937,5191733.016576908 L 609506.3115652336,5191754.281324324 L 609472.6418042404,5191772.002076978 L 609428.3395939745,5191780.8621116085 L 609382.2652319408,5191784.40575139 L 609311.3817510923,5191791.493330251 L 609268.851571001,5191798.580932254 L 609231.6376466304,5191812.757274127 L 609187.3354358504,5191841.110897519 L 609150.7498618233,5191861.435827117 L 609139.4890842811,5191867.691836594 L 609105.8194811587,5191864.14710221 L 609056.2008723726,5191853.513613703 L 609015.4429662412,5191855.285167102 L 608942.7872880918,5191857.056412795 L 608866.5873662579,5191857.055125277 L 608808.1084711244,5191865.915062012 L 608760.2621082297,5191876.547162192 L 608723.0483832618,5191826.92707439 L 608712.4158742458,5191805.661344105 L 608701.7833411705,5191779.079530821 L 608700.0112769546,5191722.371750345 L 608696.4673674548,5191681.612951846 L 608698.2396015201,5191617.8165033115 L 608696.4676576328,5191562.880586149 L 608698.2397285909,5191511.489234515 L 608701.783967867,5191474.274852125 L 608712.416465569,5191447.692940069 L 608724.8211672369,5191417.567174003 L 608731.9095442258,5191405.1624879455 L 608730.1374466072,5191378.580657991 L 608719.5051192692,5191341.366079988 L 608710.6446997749,5191318.328255241 L 608712.416920054,5191284.657878375 L 608724.8216544418,5191249.215659871 L 608730.4736160166,5191236.02698855 L 608735.454151586,5191224.406199362 L 608758.4913307668,5191196.052595423 L 608770.8958864086,5191194.280646731 L 608774.4401264514,5191178.331521587 L 608767.3519045323,5191167.698878398 L 608760.2635324992,5191148.205416883 L 608752.712885991,5191124.042835427 L 608751.4029338983,5191119.851324515 L 608749.7042086542,5191101.160980477 L 608747.8590732274,5191080.864494971 L 608738.9987492056,5191059.599070116 L 608721.2778580775,5191043.649801793 L 608709.9562477225,5191041.848317495 L 608701.7847809098,5191040.548190737 L 608693.367368741,5191034.788530405 L 608686.2792288613,5191021.497661003 L 608664.1281252501,5190997.130710677 L 608658.3371725405,5190987.933290873 L 608649.0653660257,5190973.207036115 L 608645.078189769,5190959.029804856 L 608635.33176438,5190950.169159652 L 608623.3701605804,5190934.662969408 L 608615.8388953754,5190918.27054914 L 608587.4854773986,5190893.017520993 L 608587.1612401139,5190892.809923741 L 608576.4099276194,5190885.928878741 L 608571.9798995638,5190871.751885991 L 608571.5026922963,5190866.5028552655 L 608569.7648268185,5190847.385308937 L 608564.0054392027,5190824.347576473 L 608554.7020341337,5190799.98083358 L 608535.2092166112,5190755.234453124 L 608525.9059258392,5190727.323631617 L 608522.24837702,5190716.5340544535 L 608517.0454343162,5190701.184596957 L 608511.2862323247,5190675.48871949 L 608498.8817055472,5190652.893919296 L 608483.375823215,5190633.8434057925 L 608470.971426159,5190607.26140711 L 608465.2121807677,5190587.768171337 L 608460.782006083,5190563.401318437 L 608458.6870198703,5190552.140959265 L 608457.2379032448,5190544.351112384 L 608457.6807809763,5190535.9334897 L 608447.934417333,5190522.19943093 L 608426.2262456532,5190510.237420393 L 608398.3159946817,5190489.857596401 L 608351.3557097815,5190488.084903153 L 608318.7038286696,5190494.024178613 L 608265.8524840215,5190487.197695779 L 608223.3224644492,5190497.829852058 L 608196.7410425518,5190501.373710283 L 608157.7551916913,5190524.410636331 L 608150.0924616854,5190531.1157414 L 608129.401688096,5190549.2201479245 L 608106.3644680711,5190581.117931475 L 608070.9227444298,5190588.205946735 L 608031.9367559748,5190595.293816539 L 608000.0392002267,5190589.977118502 L 607953.9649892505,5190591.748652878 L 607923.8395551807,5190589.976175698 L 607888.3977597919,5190586.431273545 L 607860.0442290232,5190593.519434739 L 607777.1090892098,5190604.958006452 L 607772.6433515802,5190606.514445236 L 607726.1433443101,5190633.013613342 L 607577.518722939,5190764.012073757 L 607544.9394619942,5190808.8480343325 L 607510.9424568572,5190846.92776283 L 607484.3610389044,5190887.686287883 L 607443.6029721696,5190912.495199985 L 607388.668198128,5190944.392680034 L 607321.3287045234,5190979.834148295 L 607250.4450462756,5191027.680369794 L 607207.9146850823,5191086.159672795 L 607165.3845811379,5191137.550576226 L 607119.3100370069,5191176.536394438 L 607071.4637052194,5191203.117585369 L 607032.4777861563,5191222.610470534 L 607007.668373703,5191226.1542515075 L 606993.4917915898,5191219.065640496 L 606984.6313752481,5191190.711466525 L 606956.278144987,5191125.142803352 L 606931.4692922332,5191048.941244485 L 606917.2926078967,5191015.270907135 L 606915.5205825979,5190990.461185156 L 606908.5461181395,5190968.3746778825 L 606904.8881652774,5190956.790936092 L 606885.3954550512,5190907.171205276 L 606878.3070889106,5190882.36141104 L 606862.3584794129,5190841.602627282 L 606855.2701432675,5190807.9321576 L 606841.0933745537,5190791.982894451 L 606809.1959094615,5190761.8565543555 L 606798.751388053,5190749.919386258 L 606784.3869890138,5190733.502253355 L 606754.2614882549,5190673.249708579 L 606743.1577855693,5190634.889790132 L 606734.768778198,5190605.90916838 L 606717.0481246955,5190563.3779762965 L 606715.2973600826,5190561.238312581 L 606701.0992373738,5190543.884627871 L 606695.7831419467,5190517.3026149655 L 606679.8344401213,5190485.404311862 L 606660.3416753393,5190449.961737753 L 606635.5324911947,5190418.063236109 L 606614.2674044438,5190398.569715877 L 606603.6350800742,5190377.3041137215 L 606600.0909992505,5190350.722195128 L 606589.458520873,5190325.912647123 L 606564.6493622963,5190290.469810829 L 606557.5611103013,5190272.748565928 L 606558.5731564389,5190269.711952805 L 606564.6496635091,5190251.4833209785 L 606573.5099645474,5190235.534298413 L 606573.5100600326,5190216.040879237 L 606552.2450864536,5190207.180006297 L 606520.3476053812,5190207.179695993 L 606505.6804087178,5190198.378971271 L 606502.6266907459,5190196.546751831 L 606476.0455252285,5190171.736760593 L 606468.2530724631,5190159.491296095 L 606463.640951852,5190152.243201383 L 606443.1062055852,5190146.203396489 L 606433.5154293396,5190143.382273436 L 606410.4782977232,5190129.205054067 L 606399.2645986545,5190109.980736239 L 606398.0737183405,5190107.939369067 L 606375.0369710338,5190077.812994756 L 606363.4194280098,5190072.649644261 L 606327.1905686135,5190056.54705384 L 606288.4635666066,5190046.980487793 L 606277.0260704451,5190038.980195928 L 606254.0921499443,5190010.471180799 L 606240.8013625479,5189987.876364861 L 606215.1062456904,5189967.939677097 L 606198.2715813068,5189954.648690862 L 606179.2217187884,5189936.041212502 L 606162.8299995656,5189918.762887051 L 606145.9952463983,5189898.826215 L 606139.7929407278,5189883.320334037 L 606138.2382374526,5189872.436803877 L 606137.1348197672,5189864.7129513305 L 606130.4895657724,5189845.219313903 L 606125.173392446,5189830.156555694 L 606120.7432637215,5189810.220208013 L 606116.7561509459,5189788.51158176 L 606115.8701847056,5189768.132124987 L 606110.5537609375,5189758.385727971 L 606099.0353944184,5189752.182812965 L 606084.8587135858,5189747.752513636 L 606068.4668649475,5189746.866292619 L 606050.7460114942,5189748.638113471 L 606039.954868274,5189752.082100861 L 606029.9240884717,5189755.2832294805 L 606019.2914180174,5189756.612162987 L 606002.0136528474,5189753.067763786 L 605968.3441226641,5189739.776475611 L 605936.8896136829,5189741.105009669 L 605901.0046865584,5189743.319900077 L 605869.9931744871,5189743.762504799 L 605846.0699144319,5189736.673808676 L 605826.577194615,5189725.154776411 L 605795.1226289405,5189715.850573099 L 605786.2623521923,5189708.318908962 L 605775.1867489938,5189692.812946513 L 605745.0614018206,5189669.331934507 L 605718.0371081255,5189655.15465007 L 605692.341832024,5189649.394977975 L 605673.7349694802,5189639.648058637 L 605647.5966806953,5189630.787224545 L 605617.4713692411,5189628.571740759 L 605595.3202389344,5189634.330760344 L 605582.029525765,5189635.659748292 L 605571.3971774094,5189626.798796921 L 605548.802990783,5189602.431995835 L 605528.4240866043,5189584.267691974 L 605508.4883558992,5189555.913301028 L 605496.5267572204,5189523.572215417 L 605482.3501997577,5189507.17985973 L 605463.743427547,5189486.80040121 L 605443.3644349553,5189477.053440378 L 605427.8586312167,5189471.7368324315 L 605402.6064616864,5189458.445633827 L 605396.6196979416,5189455.351291074 L 605363.1775246842,5189438.065874551 L 605341.9127591592,5189432.749141798 L 605327.7358536025,5189446.925825713 L 605308.2428892564,5189466.4191696495 L 605299.9256614216,5189477.112643611 L 605271.0288798664,5189491.228225324 L 605252.8132495829,5189499.597370365 L 605205.4614894615,5189521.353293469 L 605175.3361714149,5189535.529807419 L 605152.298944981,5189542.61802684 L 605111.5410304164,5189524.896261282 L 605070.7830955135,5189526.6678803805 L 605030.0250569538,5189551.477035426 L 605008.7598450575,5189588.691245118 L 604983.9504828698,5189618.81692727 L 604955.597051587,5189632.993306565 L 604925.4715371327,5189641.85356892 L 604900.6622065364,5189663.118641272 L 604890.0296379413,5189686.156068619 L 604866.9924544943,5189707.421086083 L 604835.094645373,5189744.635172065 L 604810.2852053071,5189788.937716174 L 604787.2480035231,5189822.607533384 L 604753.5782637951,5189842.100494962 L 604714.592381239,5189859.821048818 L 604666.7459414252,5189873.9974225545 L 604664.4064229933,5189875.280286259 L 604613.0786393967,5189903.427482994 L 604611.8110854689,5189904.1227346435 L 604611.5899421569,5189904.659365676 L 604599.4062785278,5189934.248403228 L 604599.4061997065,5189960.830125336 L 604597.6340420191,5189980.323565075 L 604583.4573368856,5189989.183762276 L 604556.8760027698,5189990.955658231 L 604546.243284718,5190010.448780969 L 604548.0154133291,5190038.802585683 L 604540.9268646616,5190054.75156935 L 604516.1176881609,5190077.788769903 L 604491.3082868042,5190104.370106203 L 604462.9549587324,5190107.914027 L 604420.4248866243,5190100.825142237 L 604390.2993163276,5190091.963959783 L 604328.2764449625,5190061.837349612 L 604282.2022932111,5190028.166403908 L 604232.5841946253,5189992.72341443 L 604159.9286570041,5189943.1034884835 L 604115.626596934,5189918.293121604 L 604071.3244810868,5189905.887673528 L 604027.0224288595,5189905.887135374 L 603926.0135124444,5189904.113660272 L 603855.1298859502,5189916.517703548 L 603800.1951904204,5189925.377683534 L 603725.7676342855,5189932.464975449 L 603630.0746685961,5189957.273329076 L 603591.088731778,5189962.58909378 L 603548.5586828957,5189966.132868828 L 603493.6238778003,5189983.853361265 L 603440.4612102349,5189999.80149404 L 603399.7032067232,5190006.889488525 L 603362.4893955636,5190001.572656654 L 603328.8199351226,5189978.534802313 L 603276.0656147692,5189945.215049624 L 603261.4807300189,5189936.003124 L 603218.9506771491,5189930.686192426 L 603178.1927642844,5189923.597333015 L 603153.9385802897,5189920.960457014 L 603096.6766756893,5189914.735659256 L 603063.0072278932,5189920.051559927 L 603034.6536258144,5189918.279042164 L 602988.2632775081,5189904.103115054 L 602970.858720414,5189898.784983276 L 602926.5565654428,5189884.60740557 L 602923.4599615057,5189883.44603202 L 602898.2032125256,5189873.974370196 L 602885.7987960287,5189858.025283824 L 602878.7104023442,5189836.759609135 L 602866.3241243307,5189802.352014773 L 602862.7619411034,5189792.456733791 L 602855.6736921095,5189774.735565676 L 602855.673926218,5189749.925794955 L 602837.9530198321,5189725.116161975 L 602827.3206312795,5189691.445707508 L 602816.6882173961,5189682.58515852 L 602798.9675405449,5189661.319548615 L 602779.4748264136,5189631.193295077 L 602767.1173813185,5189621.743369593 L 602749.3494298953,5189608.155394807 L 602719.2239894036,5189599.294586725 L 602682.0102811172,5189567.396077063 L 602616.4433507116,5189521.32023291 L 602589.1738924758,5189498.792434521 L 602575.6855570062,5189487.649487365 L 602553.8329813009,5189470.167068628 L 602540.2440725175,5189459.295275474 L 602537.3766395703,5189456.837526521 L 602478.2211625061,5189406.131044023 L 602430.3750390621,5189376.00467575 L 602406.1934645935,5189367.095147846 L 602396.7056103532,5189363.599460914 L 602373.6683886176,5189367.143388962 L 602347.0870544739,5189361.826644465 L 602301.0129231593,5189340.560845456 L 602277.9760134957,5189317.522904371 L 602262.0274186572,5189292.713241986 L 602231.9020826262,5189264.358982703 L 602187.5999720679,5189227.144136274 L 602155.7026297791,5189197.0177815845 L 602122.0329595149,5189189.928988562 L 602091.9074785728,5189184.612194186 L 602054.6938283087,5189191.700261041 L 602021.0241956799,5189184.61146283 L 602010.4925166278,5189179.596163714 L 601983.8105060718,5189166.889652813 L 601959.0012346095,5189165.117260474 L 601921.787588953,5189152.712167853 L 601893.4339812945,5189165.116490748 L 601873.9412334111,5189166.888447554 L 601866.8529078156,5189158.027856703 L 601852.676193214,5189129.673719552 L 601829.6394952871,5189094.231246921 L 601785.3373432525,5189055.244174298 L 601767.6167424656,5189035.750817827 L 601756.9843065804,5189018.0296518635 L 601746.3517892566,5189002.080494678 L 601726.8589550448,5188996.763834711 L 601721.6380500455,5188998.156076912 L 601700.2775627933,5189003.851990035 L 601661.2919083504,5189000.307334933 L 601622.3058082147,5189010.939403841 L 601556.7387177608,5189014.482765992 L 601517.7526208716,5189019.7986208415 L 601492.9434681507,5189019.7983209845 L 601448.6412279154,5189019.797864258 L 601425.6042071024,5189033.97436683 L 601395.4785657894,5189044.606671246 L 601374.2133944873,5189065.871693665 L 601345.8600819453,5189078.276269045 L 601343.4583801846,5189078.516362063 L 601310.4182446791,5189081.81991498 L 601289.1531686726,5189081.81979913 L 601262.5719785081,5189095.996297451 L 601227.1298690762,5189124.349581153 L 601202.3206541286,5189138.526216648 L 601166.8789869457,5189124.348787935 L 601104.8560907362,5189108.399064909 L 601057.0097093082,5189115.486936555 L 600996.7587598162,5189133.207201454 L 600943.5959242055,5189166.876575946 L 600883.3447951751,5189197.001923866 L 600816.7702601141,5189203.610985448 L 600725.6289585023,5189204.08831314 L 600651.2014986596,5189195.226823757 L 600576.7739971256,5189177.504646666 L 600477.5373472192,5189152.693834713 L 600371.2123215762,5189129.655254491 L 600286.1522706193,5189108.388667605 L 600250.7105879404,5189106.61638464 L 600195.7759234026,5189106.61569273 L 600139.0691155397,5189099.5263192905 L 600110.2727820268,5189093.323644829 L 600098.311051974,5189111.93052549 L 600092.9948212435,5189126.107421479 L 600077.0459435523,5189147.372740083 L 600055.337686426,5189175.283102273 L 600035.8444615081,5189190.345697144 L 600030.2657802638,5189193.747255555 L 600017.6805429844,5189201.4211820755 L 600002.1748984326,5189200.977963106 L 599972.492444999,5189207.179967382 L 599958.3154789759,5189220.470531405 L 599934.3923151537,5189232.875218895 L 599905.5957613528,5189238.190847145 L 599867.9390011438,5189239.962599241 L 599849.3320908932,5189241.73459789 L 599827.6241083563,5189240.848355492 L 599794.8405094404,5189238.189650112 L 599740.3488399563,5189238.631779189 L 599697.3756650155,5189239.07439928 L 599665.0352388197,5189238.188002438 L 599645.0992492584,5189238.187826569 L 599633.6228882,5189234.1369844405 L 599630.0364524602,5189232.871121395 L 599601.6830560376,5189229.326602748 L 599582.6331647135,5189227.11114883 L 599551.1787260554,5189228.439792966 L 599535.6728678741,5189235.9711590735 L 599520.6099972482,5189251.033956744 L 599506.6532317571,5189257.7629617285 L 599453.2706131234,5189278.5008088425 L 599408.9682283899,5189301.537586818 L 599384.1590189863,5189313.941853193 L 599352.2614148912,5189321.029991152 L 599313.2754215728,5189331.662165876 L 599300.8708250006,5189336.535333143 L 599282.2637602921,5189342.294602248 L 599260.5557247608,5189340.965097037 L 599249.0370474686,5189346.724232163 L 599233.0883897193,5189359.128740646 L 599213.1523356932,5189373.748563584 L 599198.0894349479,5189380.393690569 L 599175.0521394786,5189387.924835999 L 599148.4708075055,5189392.354741999 L 599127.6488675205,5189395.4558327645 L 599105.0547255011,5189393.683335435 L 599072.7141660125,5189392.796865059 L 599052.3351193275,5189390.5814479375 L 599024.4249239275,5189387.479786534 L 599003.6029081678,5189380.8343643015 L 598984.9960002308,5189376.403804081 L 598969.4902454041,5189370.201129788 L 598942.9091214513,5189354.694736539 L 598920.8102449828,5189346.146765601 L 598895.9490893501,5189336.530139349 L 598854.748062523,5189323.238923305 L 598772.7892079029,5189305.073722652 L 598747.9799523953,5189305.073398108 L 598731.5882361816,5189303.300980458 L 598728.1125867817,5189303.526472612 L 598713.1307480994,5189304.4986463785 L 598698.4374945917,5189315.800998126 L 598678.0929693037,5189331.624719309 L 598663.3996320785,5189340.666470646 L 598641.9248347066,5189339.535955235 L 598621.5803562332,5189330.4934209855 L 598582.0216821111,5189327.102218619 L 598561.6770362371,5189322.580901272 L 598533.4208349081,5189315.7990156105 L 598509.6856446776,5189314.668331008 L 598490.4714118658,5189299.974818822 L 598483.6901636736,5189288.67196801 L 598467.8665963176,5189290.932421699 L 598443.0011285306,5189298.843940313 L 598419.265773971,5189303.3646709 L 598397.7910809504,5189305.624838656 L 598378.5766230945,5189305.624528946 L 598363.8834879067,5189305.624528902 L 598343.538936823,5189298.842591303 L 598320.9341135317,5189286.40945288 L 598296.0686258001,5189272.846024031 L 598267.8124533782,5189267.1941855 L 598238.4258740377,5189261.542442324 L 598187.5648016949,5189244.587843852 L 598171.8730231235,5189243.136443025 L 598158.2869149736,5189236.047980079 L 598131.7525113944,5189229.560261254 L 598120.4825513929,5189226.596116414 L 598107.4872624428,5189218.917010549 L 598097.4455591724,5189208.284104765 L 598084.6305860884,5189199.336242409 L 598065.5480852441,5189203.558262134 L 598047.8271465235,5189204.148764726 L 598033.6504518077,5189197.060175437 L 598020.3679242952,5189184.836804668 L 598005.595065179,5189171.11848245 L 597995.4229113542,5189163.206614823 L 597972.8178104527,5189163.206263822 L 597954.7336635041,5189165.466598276 L 597932.1088357486,5189169.434205425 L 597914.0448972225,5189171.117349155 L 597890.3094775532,5189176.768369999 L 597878.0963543602,5189173.992570051 L 597865.4439860809,5189171.116866651 L 597848.4903523861,5189162.074375086 L 597833.797141294,5189148.511092696 L 597819.1039595272,5189143.989830106 L 597804.42078046,5189142.262155452 L 597770.0530995366,5189153.197150735 L 597755.8098073106,5189156.422003249 L 597741.6997461733,5189146.108215533 L 597710.6882902134,5189140.791709994 L 597682.3349357634,5189139.019130309 L 597653.095437606,5189144.334938495 L 597635.3743630147,5189154.967496016 L 597601.7048698345,5189146.992515153 L 597568.0353612655,5189145.219996985 L 597510.4423937831,5189149.649636424 L 597479.4308693737,5189149.649123407 L 597449.3053780784,5189149.648732271 L 597421.8382328287,5189143.446102869 L 597390.826605141,5189137.243320702 L 597373.1059176781,5189132.812813945 L 597357.1572625319,5189123.065847978 L 597343.8666813462,5189112.4333700035 L 597327.9178907798,5189103.572570523 L 597304.8808025594,5189100.91397388 L 597293.3621796035,5189101.799808947 L 597262.3506075024,5189110.660135928 L 597233.1110789367,5189121.29230399 L 597211.8460783941,5189127.494439925 L 597205.908578175,5189128.632312954 L 597169.7592139061,5189112.873961771 L 597088.2433289125,5189086.291427226 L 597037.5915902767,5189082.183867305 L 596891.9532624756,5189091.79968446 L 596835.1920337718,5189101.732404929 L 596828.1555154246,5189102.9637795035 L 596816.0201076197,5189107.124256571 L 596811.8833266946,5189108.542563848 L 596655.901492544,5189173.139502966 L 596517.1410223474,5189235.341127339 L 596515.2493803927,5189236.453840353 L 596448.5583113453,5189264.049548036 L 596372.0009836295,5189291.162584306 L 596339.3962406786,5189312.122615138 L 596327.3423122364,5189319.8713797415 L 596311.3928196965,5189334.225691418 L 596289.0635579111,5189335.8205933925 L 596145.519311815,5189299.134609612 L 596115.2154530091,5189295.944297921 L 596049.8725611373,5189292.973372257 L 596003.5696581276,5189297.537816255 L 595938.6454388883,5189301.231830526 L 595880.759148583,5189297.536335918 L 595631.9484725529,5189302.317917889 L 595501.1633381638,5189297.531525408 L 595435.3157058808,5189295.649107208 L 595365.7734323101,5189302.466233113 L 595247.0429291563,5189316.642196255 L 595165.5260591543,5189327.275297067 L 595078.6927785496,5189337.907971511 L 595006.0362750306,5189348.540830148 L 594905.6836105804,5189407.033926093 L 594913.8751420882,5189417.45952624 L 594916.923362798,5189421.863199804 L 594919.4178540531,5189426.602777609 L 594921.3219114424,5189431.608671292 L 594924.2220761951,5189442.088526721 L 594926.4249320716,5189452.736789268 L 594927.9208106962,5189463.507223771 L 594928.7029949974,5189474.352831603 L 594928.7683452162,5189485.226439554 L 594928.3094467362,5189492.2460548 L 594927.3143202182,5189499.210160661 L 594925.7894165192,5189506.077757221 L 594923.1547393348,5189514.550667173 L 594919.7753037463,5189522.754967215 L 594915.6778032468,5189530.625433637 L 594910.8951674926,5189538.099257427 L 594905.0629358678,5189546.881101896 L 594899.7247197813,5189555.971814123 L 594892.8379442623,5189568.909022285 L 594886.3198350498,5189582.03617327 L 594883.7357136082,5189586.8913831385 L 594880.7495380366,5189591.510396052 L 594877.3830436371,5189595.8599804165 L 594873.6600820031,5189599.908674955 L 594863.9439895607,5189609.239525851 L 594853.8673135075,5189618.180052854 L 594843.4456144485,5189626.715684262 L 594832.6954537807,5189634.833832487 L 594849.8099499382,5189661.219110542 L 594881.707435452,5189703.749405136 L 594899.0748112132,5189722.94499679 L 594915.3771271275,5189740.96339432 L 594982.7165462327,5189813.619484856 L 595094.3585115126,5189895.135872757 L 595168.786351225,5189967.791824846 L 595237.8978877761,5190036.903462535 L 595361.943831632,5190130.825899597 L 595432.8267353442,5190173.357469088 L 595526.4584858906,5190232.49543258 L 595533.8352859291,5190237.154605693 L 595604.7183482997,5190286.774396791 L 595672.0573138172,5190318.673256425 L 595728.7639272681,5190339.939313865 L 595794.3306521107,5190394.875261931 L 595884.7064065919,5190488.798162598 L 595989.2586071482,5190591.581473438 L 595997.200676075,5190598.760253302 L 596081.4063690376,5190674.871776096 L 596159.3775330179,5190752.845406162 L 596189.5028433992,5190791.832012708 L 596201.9067940329,5190855.628059103 L 596214.3106638368,5190935.37273124 L 596230.2590116092,5190988.5361772375 L 596271.0165133363,5191048.788408374 L 596324.1783932085,5191128.533810608 L 596370.2519878559,5191224.227995964 L 596430.5020998111,5191321.694684912 L 596480.1195783383,5191422.705312458 L 596512.743748642,5191473.330581129 L 596531.5095144376,5191502.450958873 L 596540.5350368663,5191513.2818801515 L 596584.671671213,5191566.247467197 L 596607.7086435199,5191583.968835874 L 596617.7180252428,5191603.988114414 L 596629.4090989258,5191618.602412648 L 596631.3054553244,5191631.877952226 L 596633.8340277694,5191637.778150309 L 596642.6841841557,5191655.479400286 L 596644.1590870307,5191670.229921749 L 596644.1591372715,5191676.867877682 L 596645.6340789242,5191683.5057175355 L 596646.9360120265,5191690.015135533 L 596655.5539728075,5191711.560935126 L 596661.8594854897,5191721.019576469 L 596661.8592575028,5191735.133175755 L 596660.8219075355,5191749.65341904 L 596660.3840604116,5191755.784226903 L 596655.9586690516,5191767.5846947925 L 596648.5832934576,5191780.860466166 L 596642.669759746,5191794.658794951 L 596637.8320919297,5191828.519809753 L 596636.0596431281,5191858.645563515 L 596641.3757577061,5191892.315443789 L 596646.6918085541,5191917.125033898 L 596657.3240575156,5191949.023061591 L 596664.4121314738,5191988.00956505 L 596664.4116237762,5192035.856566733 L 596667.9556545716,5192074.842835915 L 596678.5878573769,5192096.10821279 L 596694.5365895343,5192115.6015548445 L 596715.8014606122,5192140.411374629 L 596733.5220177115,5192165.221094295 L 596746.9905485386,5192202.934024132 L 596751.2426134229,5192214.840428566 L 596765.4191035532,5192244.966255 L 596770.7350585295,5192275.092182783 L 596774.278944425,5192301.673775635 L 596772.5065806691,5192330.027471237 L 596779.594789974,5192354.8369872775 L 596786.6829239666,5192376.102273051 L 596804.4037615182,5192399.140188727 L 596813.141723656,5192432.637419954 L 596815.0358281144,5192439.898660873 L 596829.2123552851,5192464.708259272 L 596843.3887900852,5192496.606495387 L 596859.3374818164,5192510.783575206 L 596885.9185291623,5192535.59355538 L 596902.7300338092,5192554.8070849655 L 596910.7276182019,5192563.947530447 L 596913.5022819012,5192569.496994979 L 596923.1320131132,5192588.757117642 L 596928.4481507228,5192618.8828967 L 596935.536112385,5192650.781014348 L 596962.1170862345,5192703.944643299 L 596979.8379234046,5192726.982106212 L 597041.8604836946,5192789.006808752 L 597073.7578599709,5192819.1331968745 L 597095.0225937364,5192840.398777711 L 597096.7945500826,5192868.7523985375 L 597105.6547139827,5192891.789948898 L 597109.198687601,5192911.283101173 L 597109.1985171039,5192929.004234535 L 597110.9705336401,5192952.041549977 L 597125.1471808968,5192976.851262798 L 597144.6397594219,5193010.521774865 L 597160.588454008,5193033.559156717 L 597167.676495499,5193060.141080641 L 597178.3089541056,5193076.090028081 L 597180.0808758728,5193090.266920382 L 597180.080706734,5193115.076456603 L 597192.4852683276,5193125.709229765 L 597210.2059547672,5193141.658492279 L 597235.015203169,5193171.78477975 L 597245.6473766466,5193185.961673062 L 597256.2797960658,5193207.227101575 L 597261.5959086942,5193235.580983599 L 597272.2280472729,5193269.25104852 L 597293.4928886988,5193306.4656025525 L 597307.6694924159,5193320.642815203 L 597317.6849577647,5193331.429153395 L 597330.7065070963,5193345.452485862 L 597343.1108529532,5193375.578610887 L 597347.9040087658,5193401.942434122 L 597350.1988268116,5193414.565074702 L 597373.2356255312,5193474.817171262 L 597389.1841972977,5193506.7150328895 L 597401.678959681,5193527.4214502415 L 597451.2064912659,5193609.498338608 L 597490.1921699912,5193669.7503761 L 597518.5450368294,5193715.825570817 L 597550.4424999361,5193744.179835315 L 597566.3910735094,5193774.306051485 L 597598.2884837853,5193820.381457714 L 597606.7908963293,5193837.386916923 L 597616.009004443,5193855.823602169 L 597624.8692436975,5193880.633346562 L 597639.0459074347,5193894.810391918 L 597672.7152707572,5193923.164585569 L 597715.2451666276,5193972.784269765 L 597747.1424008274,5194025.948057474 L 597777.267484324,5194084.427968766 L 597790.3364203051,5194121.185690205 L 597790.3343290436,5194336.511861995 L 597784.3536779898,5194364.420973599 L 597790.3338360223,5194386.54907928 L 597802.0740323308,5194429.989251393 L 597812.7061791938,5194474.29218975 L 597832.1989316951,5194511.506715294 L 597864.0961178715,5194573.530900685 L 597894.2212173146,5194633.783209172 L 597915.4859544858,5194685.174462454 L 597927.8900552639,5194738.337961271 L 597945.6105132094,5194802.134140756 L 597967.2550570548,5194894.543662436 L 597972.1906602557,5194966.940439166 L 597979.899988671,5195005.488917007 L 597984.9585766636,5195006.121348443 L 597990.8474668346,5195005.2801616015 L 598021.8090087475,5194986.434529963 L 598033.7196868047,5194984.317212907 L 598101.5533736303,5194972.259036145 L 598188.3859376713,5194954.539257279 L 598225.8926258758,5194952.26689897 L 598337.9381612918,5194964.858204688 L 598350.7731962228,5194966.300682282 L 598397.9750328506,5194982.527263518 L 598415.2233133432,5194983.485704954 L 598424.5261033174,5194984.002880408 L 598440.2739632225,5194987.939998721 L 598442.2266460911,5194988.428277125 L 598443.8340065416,5194989.857286736 L 598454.203680479,5194999.07492662 L 598479.0083836588,5195037.833203626 L 598505.5895459795,5195064.415445535 L 598544.5754105998,5195094.541829061 L 598620.7747348216,5195168.971784239 L 598670.3929889266,5195223.907875144 L 598684.7002386809,5195248.708090448 L 598696.9738818269,5195269.983334465 L 598723.5550402454,5195308.969990636 L 598774.9455437888,5195337.324637055 L 598828.1081551722,5195367.45142171 L 598898.991573606,5195383.40158361 L 598976.9636932298,5195395.807743302 L 599031.8983826189,5195409.985553713 L 599108.098351373,5195411.758793901 L 599163.0332372634,5195413.531998153 L 599229.6313013595,5195404.347029898 L 599265.8145797327,5195399.356957765 L 599343.1858739825,5195404.350090534 L 599375.6843738074,5195406.447025416 L 599453.6562839411,5195417.081207794 L 599505.0468563383,5195431.259008365 L 599556.437275776,5195459.613712556 L 599593.6511131984,5195472.018898276 L 599602.9843895981,5195476.219159859 L 599664.5347695204,5195503.918141465 L 599723.0133759999,5195542.9057070855 L 599761.9993304813,5195573.032044551 L 599779.7200418515,5195592.525699144 L 599782.9434750606,5195602.195841855 L 599802.7568237775,5195661.638281789 L 599841.7422159585,5195744.928302605 L 599875.4114989926,5195815.813034347 L 599876.1822439348,5195816.6607506685 L 599910.8531341336,5195854.8001281535 L 599953.163391174,5195879.210976984 L 599956.9274381885,5195881.382487991 L 599973.0414414909,5195887.070166235 L 600017.1784823441,5195902.64901059 L 600077.4294682114,5195922.143237673 L 600130.5919580365,5195948.725790732 L 600132.6106334506,5195950.160097593 L 600197.9312199083,5195996.574106904 L 600245.7775158031,5196024.928690131 L 600318.4333977976,5196053.283647385 L 600385.772793025,5196056.829210837 L 600431.0038182327,5196068.137861877 L 600506.274819853,5196086.95691014 L 600633.8653126431,5196124.173734823 L 600791.5815071502,5196172.023394357 L 600935.1203225569,5196251.771093247 L 601103.4689130462,5196312.0258659 L 601180.3173737873,5196364.398812904 L 601209.1911068839,5196414.9292429555 L 601229.2865307069,5196462.657398542 L 601255.8676478657,5196521.137580314 L 601294.8534041018,5196567.213143621 L 601300.5649539474,5196578.636994803 L 601305.4857313558,5196588.478509207 L 601305.4857467136,5196613.288338392 L 601305.4854456828,5196643.414299131 L 601304.6074816106,5196647.3652171185 L 601298.396935181,5196675.311982263 L 601303.7130420373,5196714.298632416 L 601309.2623388253,5196726.507677057 L 601312.5733570647,5196733.7919187695 L 601335.6102898754,5196758.6018880755 L 601356.875391584,5196795.816588333 L 601356.8750202546,5196834.803068778 L 601363.9632452818,5196859.612816051 L 601367.5074213655,5196887.966809923 L 601351.558370126,5196911.003794002 L 601340.9255177594,5196957.078537296 L 601346.2414231177,5197003.153523945 L 601360.417705058,5197095.303665004 L 601376.3663269102,5197136.062498783 L 601378.9300969788,5197138.768831803 L 601408.2638981584,5197169.733181514 L 601440.1612524973,5197206.948181153 L 601476.4493820851,5197261.381894347 L 601550.0303307511,5197350.491252565 L 601576.6117924418,5197316.821535367 L 601601.4213431061,5197277.835582735 L 601636.8634863375,5197237.07778394 L 601642.8496248217,5197233.9879885875 L 601691.7986009719,5197208.724712507 L 601759.1382710458,5197173.283903349 L 601827.9664420651,5197162.27263591 L 601847.7430949878,5197159.108509123 L 601863.831774446,5197159.108931744 L 601884.9571376011,5197159.1092784265 L 601921.1496396066,5197157.8173075495 L 601939.6107100806,5197154.356123884 L 601960.6803327843,5197149.089180597 L 601976.4825046188,5197149.089523918 L 602005.4531981898,5197154.357408822 L 602041.0082700374,5197156.99193001 L 602059.4442246732,5197158.309014755 L 602075.246384505,5197158.309388304 L 602100.2664439713,5197153.042452316 L 602118.4789893633,5197158.506541617 L 602126.603348598,5197160.944021167 L 602142.7742557671,5197159.474244378 L 602155.5742287217,5197158.310817301 L 602184.5449718166,5197156.994490357 L 602201.6639635928,5197153.044263283 L 602245.1201587652,5197139.876362876 L 602279.3584391503,5197131.975955456 L 602303.0617353768,5197126.708932978 L 602322.8145493423,5197122.758366351 L 602327.1006363853,5197121.90141735 L 602344.985768778,5197116.66698483 L 602363.4227747084,5197111.270940353 L 602421.9018924827,5197095.323260539 L 602459.1159257169,5197077.602870087 L 602487.4694479249,5197061.654054474 L 602531.7719949414,5197054.5665570395 L 602574.3020464554,5197059.883740546 L 602684.1718811179,5197082.923289106 L 602716.0695345798,5197075.83529361 L 602737.8455057361,5197072.206338152 L 602747.9673897965,5197070.519724231 L 602756.6233122827,5197063.8611683985 L 602771.004567732,5197052.798831839 L 602795.814013503,5197036.8504825765 L 602817.40042994,5197036.850822819 L 602843.6604781097,5197036.851109179 L 602935.8094252626,5197019.131617636 L 602994.2886080483,5197008.500204781 L 603033.2747080881,5197004.9565378325 L 603095.297952221,5196989.008708187 L 603138.4522861753,5196983.0572201125 L 603146.6888140066,5196981.921323792 L 603193.3285056148,5196989.51464961 L 603222.8888362582,5196994.327501197 L 603286.6841215839,5197015.593994243 L 603343.3908056001,5197049.26497727 L 603369.9722707978,5197061.670526283 L 603442.6280325156,5197059.89955955 L 603501.107083387,5197072.305443084 L 603548.9535308258,5197081.166908052 L 603589.7115109538,5197105.977272678 L 603635.7859646857,5197129.015858769 L 603659.2699694042,5197147.8036562735 L 603667.3193646598,5197147.803782436 L 603680.4878235885,5197141.21951215 L 603706.8249302917,5197126.734538527 L 603708.2222187059,5197126.535242471 L 603713.9258430266,5197125.720367621 L 603725.2608737388,5197124.101420373 L 603739.7462233668,5197121.467853063 L 603740.2355852653,5197120.795176922 L 603750.2812137452,5197106.982462686 L 603756.3175999147,5197092.645904025 L 603762.9306477605,5197082.726425845 L 603768.6931284792,5197074.082510863 L 603784.701142929,5197068.213295786 L 603821.8560727282,5197054.590223921 L 603894.5120392472,5197049.275231739 L 603926.4977559889,5197049.868166652 L 603990.205093938,5197051.049136393 L 604057.5445584208,5197065.227215578 L 604075.265348108,5197086.493044762 L 604084.4196433395,5197102.513223504 L 604089.442053414,5197111.302881506 L 604126.6557876032,5197139.657359018 L 604133.744074722,5197157.378630012 L 604137.2883764772,5197169.783639582 L 604156.7812761179,5197166.239819527 L 604190.4513324861,5197144.975023143 L 604195.270719997,5197139.467042033 L 604215.2605475975,5197116.621556408 L 604248.8413119975,5197093.115568115 L 604250.702576681,5197091.812697134 L 604305.6375971873,5197065.231920111 L 604344.6238908145,5197038.651000171 L 604372.5911718305,5197032.82463813 L 604387.1540693972,5197029.7911469145 L 604422.5959563311,5197033.335928735 L 604461.5821127476,5197042.197280022 L 604501.3761156928,5197047.6867775945 L 604512.9727360163,5197049.286705157 L 604513.9439638054,5197049.137331386 L 604559.0472375428,5197042.198987065 L 604638.7913487514,5197028.023643523 L 604695.4983751893,5197024.480334244 L 604729.1680983937,5197022.708881848 L 604764.610018581,5197031.570097598 L 604796.507630166,5197049.291786991 L 604833.7215347346,5197065.241473648 L 604869.163494372,5197077.647187685 L 604891.1091995419,5197092.663296005 L 604902.833060463,5197100.685032295 L 604932.9584586641,5197114.862442038 L 604987.8934002242,5197109.547195065 L 605011.034292734,5197106.502815019 L 605055.2332256495,5197100.6878411025 L 605080.04246123,5197095.372129375 L 605101.3076834612,5197070.56278835 L 605115.4844884691,5197056.386076146 L 605191.6844735132,5197042.210734077 L 605298.0101688427,5197010.314414514 L 605338.7684793693,5196999.682609543 L 605388.387332014,5196976.64576067 L 605417.5064236328,5196964.513297891 L 605430.9174048346,5196958.925469909 L 605480.5362480984,5196948.293733028 L 605512.4339216697,5196942.977977404 L 605544.3316195494,5196942.978667484 L 605585.0895784858,5196957.156220888 L 605607.1746959327,5196964.518293066 L 605616.9871744668,5196967.789396038 L 605645.3407094853,5196980.194912574 L 605675.4663504061,5196994.372403771 L 605693.1871705714,5197003.233170788 L 605703.435158258,5197006.080122143 L 605725.0848686772,5197012.094422676 L 605751.6663572039,5197017.411167688 L 605771.1591785554,5197028.044378667 L 605785.3359253657,5197042.22152061 L 605798.7182100193,5197064.708321066 L 605797.7403972632,5197084.75260076 L 605806.6008531539,5197107.790058349 L 605810.1449206268,5197127.283485692 L 605812.9843538675,5197130.528741182 L 605822.5495297904,5197141.460676761 L 605842.0424080411,5197187.536108143 L 605865.0793770202,5197238.927931151 L 605905.8374763652,5197306.269202658 L 605920.0141208365,5197336.395585157 L 605920.0139729987,5197340.535674994 L 605920.0138778784,5197354.1167515395 L 605935.9628168127,5197377.15445689 L 605950.1394125711,5197409.052869533 L 605973.1765520163,5197425.002144674 L 606006.182754493,5197442.374816893 L 606006.8463499206,5197442.724140305 L 606009.327240521,5197446.091192794 L 606031.6555242133,5197476.394721935 L 606077.7296715357,5197527.787170788 L 606095.4505662906,5197550.824789059 L 606106.0830882961,5197577.406812717 L 606137.9805982165,5197628.798982609 L 606148.6130648627,5197658.925106344 L 606147.6999067408,5197670.796866218 L 606145.068691974,5197705.000036462 L 606129.1196744591,5197745.758381465 L 606118.8661111111,5197776.519752732 L 606118.4870246663,5197777.656557708 L 606098.993867968,5197821.95902821 L 606075.9566020558,5197855.6288999375 L 606067.0959813582,5197878.666056609 L 606068.8679325355,5197912.336653109 L 606075.0645504622,5197937.123279862 L 606077.7283596699,5197947.778837443 L 606093.6771701629,5197990.310107706 L 606097.221267356,5198020.436168942 L 606111.3977835269,5198041.701780459 L 606118.4861449997,5198054.106839588 L 606124.884533828,5198074.581833179 L 606130.1726753727,5198088.819684882 L 606137.7288133145,5198109.16349928 L 606140.8137729932,5198112.762882894 L 606141.9614842102,5198114.101822122 L 606144.3128519873,5198115.747958042 L 606152.2141693367,5198118.381929308 L 606152.2140704215,5198124.96626192 L 606149.5804418231,5198130.672684273 L 606149.5803825124,5198133.053344354 L 606159.2439950546,5198160.434499938 L 606168.104412386,5198199.421459256 L 606180.5088108705,5198249.040825989 L 606182.2808354112,5198288.027585841 L 606181.8130516713,5198289.04134286 L 606171.6481751426,5198311.064767674 L 606153.9271857152,5198327.013724468 L 606145.0667044542,5198344.734577409 L 606134.4339824301,5198365.999868548 L 606122.0292855906,5198378.404348562 L 606098.992031313,5198403.213534391 L 606093.6756903053,5198422.706710654 L 606088.3592094424,5198456.376866726 L 606086.4242820119,5198462.9560705945 L 606079.4986318335,5198486.502834169 L 606042.2844981266,5198541.437758801 L 605997.9819638815,5198607.0051196 L 605983.8051651529,5198637.131069235 L 605978.4887236501,5198670.801074062 L 605971.4001125661,5198704.471310549 L 605971.3999645808,5198734.59708888 L 605963.1359929816,5198751.951536935 L 605953.6790373328,5198771.811235049 L 605948.3626369793,5198801.93713648 L 605937.7298612751,5198844.467850189 L 605937.7296840649,5198901.175631352 L 605944.8180108961,5198943.706544994 L 605946.5899782518,5198979.148753822 L 605961.7052540029,5199002.662317094 L 605962.5387114622,5199003.958821544 L 605962.538808538,5199013.49768157 L 605962.5386076733,5199076.615675082 L 605953.6778228255,5199112.057761939 L 605939.5009795751,5199149.272047759 L 605932.4124642157,5199182.942214296 L 605943.0450096368,5199205.979858104 L 605960.7658520411,5199227.245591366 L 605980.0259143619,5199240.841541465 L 605990.8914244698,5199248.511588908 L 606052.9146865244,5199282.182956785 L 606097.2169612668,5199306.993702496 L 606120.254104877,5199319.398940747 L 606123.7983081829,5199340.664437758 L 606122.0260349734,5199369.01827021 L 606109.6212748938,5199420.409591133 L 606104.3047681702,5199466.484348873 L 606107.8490182017,5199516.103738714 L 606107.8487617348,5199583.444283651 L 606107.848479586,5199638.379779447 L 606113.1646584684,5199696.859932842 L 606130.8853441541,5199728.758328155 L 606131.5337642961,5199732.97240128 L 606137.973636137,5199774.833525213 L 606127.3410461949,5199810.275685105 L 606107.8478288453,5199849.261825713 L 606106.0755062561,5199888.248438896 L 606106.9662587843,5199917.64724915 L 606107.8475789012,5199946.72839382 L 606134.4286159914,5199998.120243918 L 606180.503026868,5200069.006090271 L 606228.3493900535,5200141.663926107 L 606253.1586723172,5200173.562475999 L 606262.1373780417,5200176.92977096 L 606263.7912777998,5200175.334710867 L 606297.4612737305,5200134.5768526355 L 606311.6381315736,5200115.083845556 L 606341.946454436,5200087.8064332 L 606347.080039181,5200083.186491533 L 606371.8894825787,5200065.465666376 L 606400.24309321,5200060.149968329 L 606415.5556735204,5200058.758077811 L 606439.2291489046,5200056.6063621 L 606467.5828428634,5200045.9744137805 L 606488.8479100717,5200038.886398027 L 606510.1130962741,5200049.5194288865 L 606524.2898237339,5200077.873588775 L 606538.4663339854,5200106.227669094 L 606556.187337871,5200125.7214575345 L 606598.7175017543,5200161.164711291 L 606623.5268260633,5200194.835565497 L 606641.2476022927,5200237.366728481 L 606662.5127004872,5200267.493064075 L 606680.233707374,5200276.353989668 L 606706.8151508407,5200271.038383267 L 606744.0290412365,5200256.862139794 L 606788.3316455986,5200258.635061297 L 606832.6338574935,5200285.217979438 L 606868.0757517294,5200315.344541232 L 606880.4804148646,5200345.47086135 L 606912.3780103186,5200372.053432971 L 606954.9083803818,5200382.686795283 L 607009.8432515777,5200388.004548746 L 607080.727139665,5200393.322244753 L 607167.5597860459,5200418.133701921 L 607229.6433692686,5200467.149107674 L 607234.899370056,5200471.298624861 L 607266.7970536314,5200512.058231652 L 607312.871339078,5200561.678329017 L 607330.6607652453,5200575.9103888245 L 607348.3133175914,5200590.03304708 L 607389.0715246461,5200590.03398471 L 607420.9693148782,5200602.439378478 L 607480.4016408048,5200597.5889971815 L 607507.8020401864,5200595.35272612 L 607568.0533414541,5200597.126263876 L 607622.1251699247,5200618.106910691 L 607658.4301042049,5200650.291597349 L 607667.4333001892,5200678.802149368 L 607669.0624898679,5200683.962126242 L 607663.7463252213,5200715.860112832 L 607670.8344865976,5200763.707585656 L 607679.6948165658,5200806.238646583 L 607683.2389601273,5200846.997423696 L 607685.0109699566,5200912.565969035 L 607680.2395859997,5200953.9166819975 L 607679.6945048547,5200958.640893995 L 607683.2386129058,5201001.172006095 L 607686.7826243863,5201059.651935303 L 607688.5545898662,5201107.499257126 L 607697.4150314793,5201181.928490596 L 607716.9079385973,5201293.5722920075 L 607731.0844108844,5201352.052711185 L 607745.2610428156,5201424.710034817 L 607755.8934962411,5201492.050588147 L 607771.8420532185,5201584.201366566 L 607787.7907423872,5201663.947107648 L 607807.2838385786,5201708.250591707 L 607827.9394949274,5201761.612487043 L 607828.5488032787,5201763.186490607 L 607825.0045178253,5201798.62892961 L 607816.4560125575,5201823.41988703 L 607807.2834739,5201850.019822524 L 607782.4739914213,5201908.49925826 L 607773.6132882657,5201931.536841342 L 607770.0690032856,5201981.156058317 L 607775.3852263759,5202034.320023235 L 607801.9666407269,5202101.661013736 L 607835.6362513909,5202174.318611171 L 607855.1292235884,5202229.254823038 L 607853.3570811063,5202278.874059004 L 607856.4871835537,5202290.768849746 L 607862.2174100614,5202312.544692965 L 607839.9454122264,5202337.436734178 L 607832.0917502632,5202346.2141532535 L 607817.9148339023,5202379.884312284 L 607809.7481293424,5202422.63032735 L 607801.9655849196,5202521.653603819 L 607803.7375422093,5202603.170957884 L 607821.458459765,5202674.056232182 L 607846.2676450221,5202734.308865868 L 607859.9499225904,5202760.621748176 L 607869.3049224163,5202778.612373144 L 607847.8406012153,5202803.378516484 L 607846.2675344594,5202805.193793838 L 607832.0906589904,5202833.547384497 L 607816.1417720263,5202870.7615898205 L 607816.1415272413,5202915.064363452 L 607807.2810954923,5202934.557694514 L 607794.8761816479,5202969.999764293 L 607786.0156242158,5203001.89756953 L 607778.9271918249,5203040.88424739 L 607782.4711506834,5203097.591957371 L 607784.2432719376,5203150.755590543 L 607784.969947342,5203154.535150453 L 607790.366291627,5203182.596551728 L 607793.1036348876,5203196.8310079845 L 607801.9640667683,5203235.818056213 L 607817.9128597373,5203271.260784596 L 607835.6336863572,5203315.564086026 L 607855.1268268137,5203352.77886456 L 607872.8476808154,5203384.67772313 L 607881.708064851,5203407.715457019 L 607925.3883382826,5203426.935799394 L 607926.0105930292,5203427.209701267 L 607986.2619341844,5203464.425601998 L 608004.3037574883,5203485.47544221 L 608018.1596406711,5203501.641055724 L 608096.1318306035,5203572.5274435235 L 608157.6160842401,5203628.0154661415 L 608168.787733197,5203638.097527338 L 608204.2295976621,5203680.629368835 L 608250.3041260913,5203744.426821975 L 608297.9988282504,5203889.661010876 L 608326.3244868487,5203890.269516089 L 608363.1965271086,5203896.85471433 L 608388.1860877784,5203904.806619717 L 608390.2996699869,5203905.693071422 L 608420.425420929,5203941.136153989 L 608445.2346908726,5203962.402232307 L 608534.8456557312,5204061.792365412 L 608612.5004689499,5204128.174293597 L 608682.6958291165,5204196.327957882 L 608721.6819914066,5204240.631710484 L 608781.9331949194,5204293.796761349 L 608815.6029926413,5204316.835215948 L 608863.449699808,5204343.418073127 L 608911.2964261976,5204364.684758078 L 608952.0547270493,5204389.495384397 L 608985.7244986153,5204423.166497582 L 609021.1664270048,5204471.014790703 L 609077.873678051,5204520.635363774 L 609159.3902963905,5204579.1176072005 L 609173.6909958771,5204594.405128455 L 609210.781007974,5204634.054462623 L 609269.2600809791,5204708.4850235395 L 609315.3346976086,5204763.421929025 L 609345.460361407,5204809.497740456 L 609386.2186617294,5204818.359324508 L 609430.5210726997,5204860.891265217 L 609443.5776207155,5204891.900864873 L 609444.6979258499,5204894.5620563235 L 609474.8235949483,5204931.777289506 L 609489.0004081844,5204983.169315817 L 609499.6327985122,5205073.547698794 L 609503.1769151757,5205110.7623290075 L 609531.5304498647,5205167.470964835 L 609544.8075933373,5205195.79603897 L 609558.1120539268,5205224.179549457 L 609592.2426831151,5205266.187893572 L 609599.9382177212,5205275.659618464 L 609604.1864424158,5205280.888681157 L 609643.1726292497,5205332.281211392 L 609678.6147839352,5205369.496515217 L 609738.3053015135,5205403.07422635 L 609760.0328880366,5205415.688829884 L 609769.596417906,5205416.558575596 L 609776.2357267595,5205419.682973891 L 609791.983054725,5205427.094204117 L 609806.4684656645,5205434.995616927 L 609813.3542265805,5205440.504312368 L 609818.6106628327,5205451.017588373 L 609832.7873745939,5205488.232571046 L 609836.4868964632,5205517.828983352 L 609839.8758354792,5205544.940723601 L 609857.5966204712,5205605.193252973 L 609857.5965788865,5205653.04061513 L 609870.0083223539,5205682.001786263 L 609873.5454927108,5205690.255468454 L 609898.3547707493,5205752.2805176275 L 609921.3921026269,5205805.444718581 L 609949.2120065569,5205868.040963884 L 609949.7457387419,5205869.242017073 L 609950.7414712763,5205870.586165712 L 609985.1877257349,5205917.090075202 L 610041.8948727422,5205973.799349534 L 610116.3230347619,5206097.849748676 L 610141.1324193592,5206133.292970018 L 610180.1185096155,5206177.597122453 L 610248.699206923,5206224.255267439 L 610307.7096064056,5206234.306991975 L 610353.7843867847,5206230.764043786 L 610403.4032600054,5206230.765317715 L 610437.0732518464,5206237.854548558 L 610459.4541351319,5206236.411070911 L 610470.7430765308,5206234.311289929 L 610513.2736045765,5206220.135662598 L 610571.7530210683,5206202.416133301 L 610617.8278213786,5206188.24082681 L 610678.0793163481,5206186.470146635 L 610724.1540385031,5206190.015485443 L 610779.0891558836,5206193.56111029 L 610844.6569017012,5206191.79052561 L 610888.2729812397,5206186.223786055 L 610913.9446816923,5206185.640812079 L 610963.9852641766,5206188.275745262 L 610989.005529889,5206188.276594119 L 611052.3963826797,5206185.05460005 L 611080.3465357168,5206190.024242334 L 611131.8299551691,5206188.280336505 L 611184.9004108474,5206186.48259444 L 611312.4918535589,5206191.802426111 L 611402.8690079106,5206204.209358261 L 611475.5252015128,5206202.439088436 L 611555.2699498431,5206209.529668556 L 611619.0655128171,5206207.759032385 L 611670.4565733285,5206182.950545898 L 611684.1701719754,5206173.456615792 L 611700.1083630997,5206165.907386762 L 611701.6074976751,5206165.131916975 L 611740.1979573478,5206145.169717473 L 611758.9749100673,5206135.456474594 L 611767.2680473696,5206107.966453081 L 611781.7536468522,5206092.164398106 L 611798.8727027166,5206081.629797625 L 611823.8930075285,5206068.461677893 L 611842.3289370214,5206052.65958502 L 611857.5210448301,5206033.893160453 L 611904.3738999751,5206000.42741938 L 611955.7648485933,5205931.315689902 L 612010.6999716497,5205869.292800485 L 612132.9750178938,5205761.196152497 L 612186.1381162681,5205722.210651145 L 612249.9338468566,5205690.313972794 L 612303.0968401444,5205656.644891945 L 612350.943520905,5205615.887142763 L 612389.9297471434,5205585.761793076 L 612430.6881672646,5205546.776155299 L 612459.0417118208,5205511.3343456285 L 612474.9905360346,5205472.347912099 L 612485.623153424,5205417.412296046 L 612505.1163588114,5205344.755587545 L 612512.2045576795,5205286.275475154 L 612513.9962853987,5205229.837786707 L 612515.748912769,5205174.631444267 L 612512.2046902615,5205089.5694828145 L 612512.0074718434,5205087.597897795 L 612505.1160655015,5205018.68412571 L 612501.5720416172,5204972.608862968 L 612505.1161621736,5204928.305822652 L 612517.5208038564,5204846.788294206 L 612535.2418311881,5204772.35946017 L 612540.5580690411,5204699.702440428 L 612547.6464395784,5204612.868343222 L 612547.6463638413,5204518.945644984 L 612549.418518136,5204444.516275829 L 612556.5070344084,5204409.073940525 L 612561.8232431374,5204377.1758655375 L 612570.683693562,5204336.417012264 L 612579.5440305494,5204315.1517740395 L 612607.8977158816,5204249.58370256 L 612632.7070675014,5204192.876263892 L 612636.2512021284,5204148.573188378 L 612646.883810606,5204084.77681737 L 612643.3397186829,5204022.752345264 L 612643.339672682,5203950.09520966 L 612650.4278347234,5203896.931518346 L 612652.2000271642,5203841.995685591 L 612653.5335395377,5203828.993889015 L 612659.288455562,5203772.882840288 L 612666.2901773045,5203721.0692310985 L 612668.1489149017,5203707.314510308 L 612682.3256379256,5203645.290287269 L 612698.2746407791,5203597.44331318 L 612724.8561261658,5203535.419336244 L 612786.8793306729,5203414.916086009 L 612790.9014390574,5203407.396827474 L 612827.6377237097,5203338.715821958 L 612841.3180119952,5203304.514998071 L 612885.5245356899,5203214.3052101545 L 612916.2054791987,5203165.297019593 L 612926.875204871,5203094.164527187 L 612944.5961013471,5203009.102622435 L 612972.1437679093,5202966.059458002 L 612972.9497295982,5202964.800058327 L 613003.5850241908,5202847.363475031 L 613004.8473482993,5202842.524192136 L 613049.1498412992,5202771.640089912 L 613066.8708565632,5202739.742286622 L 613104.0847184366,5202656.453045534 L 613130.6662291059,5202578.47994928 L 613174.968621144,5202470.3813556135 L 613231.7285371134,5202364.137829823 L 613232.9194406003,5202361.908685156 L 613232.961036937,5202361.830502519 L 613239.5118561847,5202353.589427328 L 613272.4330467334,5202310.132990858 L 613278.9080107062,5202298.154550819 L 613345.5240583977,5202205.804425307 L 613405.2739609394,5202153.760127407 L 613419.9206248397,5202142.893115982 L 613456.7924812825,5202115.239617916 L 613489.7138482523,5202094.170086501 L 613542.3880855365,5202057.298905058 L 613564.7745282514,5202038.862949568 L 613587.1611009039,5202011.209265325 L 613604.2801395498,5201990.139460375 L 613616.1317975823,5201969.069841414 L 613625.3497611599,5201936.147937253 L 613625.6473212123,5201930.396520486 L 613627.0690788663,5201918.310901698 L 613632.1694205218,5201874.956321093 L 613655.2067430731,5201798.755338781 L 613681.7882657145,5201757.996874337 L 613711.5320730606,5201726.128663642 L 613731.4068656096,5201704.834112121 L 613773.9371457226,5201651.671352772 L 613788.1137301363,5201614.45693382 L 613791.6579763356,5201518.762092871 L 613795.4129398564,5201485.436254203 L 613805.8346786749,5201392.941216659 L 613818.2391682424,5201306.107314645 L 613828.8984171454,5201258.804439066 L 613892.859941609,5201101.359217352 L 613896.6208446381,5201095.986558057 L 613911.1062006956,5201076.233808152 L 613928.2253908633,5201057.798047658 L 613946.6612604791,5201051.2138992995 L 613969.0478056883,5201047.263691651 L 613986.1669177448,5201047.264072403 L 614013.8206938519,5201047.264841256 L 614032.2566986441,5201048.581928858 L 614041.4746418978,5201047.265278295 L 614042.8540146741,5201045.885901382 L 614047.3268715313,5201041.413272591 L 614057.471989088,5201022.5718932105 L 614055.1245848429,5201004.966041366 L 614050.3835446981,5200969.407803412 L 614047.6815685331,5200951.844036835 L 614036.2067488488,5200877.256871151 L 614032.6622786411,5200767.38474497 L 614036.2065335789,5200721.3095269995 L 614043.2949288826,5200657.513123538 L 614050.3832738376,5200614.982332886 L 614062.7879107312,5200581.312109121 L 614076.9644283924,5200529.92061996 L 614094.6854841408,5200498.022843228 L 614076.9645473784,5200446.630600591 L 614070.2431464277,5200429.649829896 L 614058.227867576,5200399.295051117 L 614043.2944411222,5200361.567687953 L 614043.2944153866,5200313.720246506 L 614053.9270662022,5200276.50557751 L 614091.1409009738,5200209.165693387 L 614133.671266943,5200180.81257326 L 614165.568933456,5200148.914404258 L 614192.1499858268,5200113.471291033 L 614205.4226433033,5200105.627984013 L 614231.1355041479,5200090.432955424 L 614206.6534930256,5200040.179282353 L 614197.4661244032,5200021.320742123 L 614157.5813215752,5199916.791995372 L 614140.7592265813,5199852.96867145 L 614128.3545085272,5199796.26051251 L 614126.6792237936,5199732.378529818 L 614132.4017903494,5199685.452424895 L 614140.759061573,5199617.275645672 L 614146.0752213855,5199567.656434716 L 614154.9358268434,5199542.8465713505 L 614183.2888589681,5199509.17624131 L 614195.6934773598,5199480.821924412 L 614186.9058528602,5199436.882828383 L 614186.3266112433,5199423.558442111 L 614178.4254754607,5199391.9537707055 L 614169.2075049753,5199362.982398209 L 614150.7715543595,5199334.010765453 L 614133.3333638896,5199301.458514571 L 614126.818133622,5199285.577147159 L 614112.4051586152,5199250.444564847 L 614103.5446538797,5199207.913370624 L 614103.5444865561,5199165.382247196 L 614104.4894601082,5199154.043069442 L 614107.0886609798,5199122.851222779 L 614114.4704700164,5199096.487368088 L 614119.4933306801,5199078.548229625 L 614128.0972292363,5199055.604111109 L 614135.4420819544,5199036.017522734 L 614162.0235915744,5198991.714826573 L 614158.4792834243,5198943.867452515 L 614147.84644794,5198871.209750051 L 614119.4930025367,5198786.147071131 L 614085.8230104973,5198724.12209676 L 614055.6974921941,5198678.046236086 L 614030.8880257637,5198655.007995313 L 613988.3577287853,5198630.197279144 L 613944.4721202607,5198588.477219546 L 613890.8925582498,5198522.095682212 L 613858.9948665111,5198476.019737955 L 613832.4132939677,5198424.6276829885 L 613821.7807223566,5198408.678106296 L 613818.2365210432,5198387.412708703 L 613830.6410391123,5198339.565234791 L 613835.9574119701,5198314.755598674 L 613837.3160141953,5198306.602462927 L 613841.2735873112,5198282.857350419 L 613834.1851990492,5198252.731152971 L 613829.5679402095,5198244.375828846 L 613796.9710877388,5198185.389421738 L 613752.6686465304,5198110.959286955 L 613717.2268014249,5198064.883479121 L 613658.7475092132,5197999.31358455 L 613631.763142126,5197946.745860456 L 613602.040545311,5197855.770054508 L 613584.3195341342,5197761.847150392 L 613579.7082650262,5197721.265911664 L 613573.989104259,5197687.904219534 L 613569.241106593,5197665.219159514 L 613562.1373394502,5197631.27819628 L 613555.5531017679,5197594.405793548 L 613555.5530707699,5197561.483844566 L 613555.5529944765,5197531.125280483 L 613555.9657771323,5197527.92557954 L 613562.9532783973,5197505.057394181 L 613575.4588916261,5197464.129418027 L 613586.9878764095,5197434.15341469 L 613593.1797514203,5197418.054386726 L 613628.0432963249,5197380.021536258 L 613649.0493007504,5197362.637220373 L 613654.3168065159,5197349.468350819 L 613653.8249685388,5197345.534177309 L 613655.2030517869,5197343.626285544 L 613648.1145522658,5197302.867318828 L 613641.1482765302,5197258.281309668 L 613641.1481756573,5197241.484350274 L 613638.5143815855,5197221.731197156 L 613637.1975744066,5197198.027496579 L 613633.4664685962,5197176.706060301 L 613632.6519836637,5197166.934936218 L 613633.2468898034,5197153.253466097 L 613633.2468546878,5197136.134134876 L 613637.1975131197,5197116.381115008 L 613637.8394653305,5197112.528292673 L 613641.0260723293,5197100.8443478765 L 613648.1142777988,5197056.541483675 L 613669.3793972791,5197010.466529817 L 613708.3653272766,5196978.568982992 L 613727.8584221401,5196959.075774806 L 613761.5282077382,5196941.355146903 L 613778.937911534,5196937.00304811 L 613796.9701264537,5196932.4953148505 L 613830.8472817568,5196913.917609413 L 613851.905039028,5196902.370017915 L 613860.2067429065,5196900.8605060605 L 613890.8910475816,5196895.282072208 L 613917.4723361128,5196897.054841125 L 613917.4723495821,5196875.393252143 L 613917.4722447017,5196849.207376675 L 613931.6490365043,5196778.322390971 L 613937.4750201204,5196748.220596128 L 613942.2815639682,5196723.386722439 L 613960.002466127,5196650.729814796 L 613958.556395716,5196585.660006382 L 613978.2590455856,5196433.730831345 L 614029.0711116358,5196336.730554736 L 614116.2584704015,5196264.731577661 L 614188.6018490318,5196234.283588372 L 614227.5877604028,5196211.246670196 L 614282.5221755253,5196198.840969886 L 614303.2291476284,5196194.81411432 L 614346.3167876152,5196186.435048467 L 614388.8466936611,5196170.485255599 L 614399.0327823285,5196167.301798716 L 614417.6428773055,5196158.52286424 L 614436.2495984241,5196149.662053263 L 614453.5274011003,5196147.003517124 L 614475.6782750781,5196145.674238239 L 614505.671170232,5196141.459280169 z" /></g></svg>